# xmcd
#
# Track frame offsets:
# 150
# 44502
# 62242
# 75052
# 87712
# 102150
# 115372
# 145612
# 198675
# 210537
# 232277
# 245925
#
# Disc length: 3475 seconds
#
#
# Revision: 0
# Processed by: cddbd v1.5.1PL0 Copyright (c) Steve Scherf et al.
# Submitted via: FreeRIP 2.91 
#
DISCID=b20d910c
DTITLE=Various Artist - Vintage Blues - Volume Two
DYEAR=1900
DGENRE=Blues
TTITLE0=Talkin' 'Bout Women Obviously (Buddy Guy and Junior Wells)
TTITLE1=Get Your Engine Started (Arthur Adams)
TTITLE2=Hound Dog (Big Mama Thornton)
TTITLE3=The Sky Is Crying (Elmore James)
TTITLE4=So Many Roads, So Many Trains (Otis Rush)
TTITLE5=No Place To Go (Howlin' Wolf)
TTITLE6=Kick Hit 4 Hit Kix You (John Lee Hooker)
TTITLE7=Christo Redemptor (Charlie Musselwhite)
TTITLE8=My Babe (Little Walter)
TTITLE9=Leaving Trunk (Taj Mahal)
TTITLE10=Sweet Little Angel (B. B. King)
TTITLE11=Still A Fool (Muddy Waters)
EXTD=
EXTT0=
EXTT1=
EXTT2=
EXTT3=
EXTT4=
EXTT5=
EXTT6=
EXTT7=
EXTT8=
EXTT9=
EXTT10=
EXTT11=
PLAYORDER=
